# xmcd
#
# Track frame offsets: 
#        150
#        13034
#        24045
#        35785
#        45754
#        58199
#        72698
#        86742
#        96750
#        110528
#        122691
#        135434
#        149094
#        165042
#        177143
#        188899
#        200216
#        211729
#        228116
#        240412
#        252748
#        266737
#        280758
#        294724
#
# Disc length: 3952 seconds
#
# Revision: 0
# Processed by: cddbd v1.5.2PL0 Copyright (c) Steve Scherf et al.
# Submitted via: ExactAudioCopy v0.95b3
#
DISCID=5d0f6e18
DTITLE=Spiral Starecase  - More Today Than Yesterday The Complete Colu
DTITLE=mbia Recordings (2003)  FLAC
DYEAR=1900
DGENRE=
TTITLE0=Makin' My Mind Up
TTITLE1=Baby What I Mean
TTITLE2=Inside, Outside, Upside Down
TTITLE3=I'll Run
TTITLE4=Love's The Only Answer
TTITLE5=More Today Than Yesterday
TTITLE6=Broken-hearted Man
TTITLE7=Good Morning New Day
TTITLE8=The Thought Of Loving You
TTITLE9=Proud Mary
TTITLE10=Our Day Will Come
TTITLE11=For Once In My Life
TTITLE12=This Guy's In Love With You
TTITLE13=Since I Don't Have You
TTITLE14=No One For Me To Turn To
TTITLE15=Sweet Little Thing
TTITLE16=Judas To The Love We Knew
TTITLE17=Get Ready
TTITLE18=I'll Always Have You
TTITLE19=She's Ready
TTITLE20=Walk On By
TTITLE21=My Cherie Amour
TTITLE22=Raindrops Keep Falling On My Head
TTITLE23=Hold The Sun Back
EXTD=
EXTT0=
EXTT1=
EXTT2=
EXTT3=
EXTT4=
EXTT5=
EXTT6=
EXTT7=
EXTT8=
EXTT9=
EXTT10=
EXTT11=
EXTT12=
EXTT13=
EXTT14=
EXTT15=
EXTT16=
EXTT17=
EXTT18=
EXTT19=
EXTT20=
EXTT21=
EXTT22=
EXTT23=
PLAYORDER=
